<svg width="32" height="32" viewBox="0 0 32 32" fill="none" xmlns="http://www.w3.org/2000/svg">
<g clip-path="url(#clip0_11_2)">
<path d="M13 23C11.0222 23 9.08879 22.4135 7.4443 21.3147C5.79981 20.2159 4.51809 18.6541 3.76121 16.8268C3.00433 14.9996 2.8063 12.9889 3.19215 11.0491C3.578 9.10929 4.53041 7.32746 5.92894 5.92894C7.32746 4.53041 9.10929 3.578 11.0491 3.19215C12.9889 2.8063 14.9996 3.00433 16.8268 3.76121C18.6541 4.51809 20.2159 5.79981 21.3147 7.4443C22.4135 9.08879 23 11.0222 23 13C23 14.3132 22.7413 15.6136 22.2388 16.8268C21.7363 18.0401 20.9997 19.1425 20.0711 20.0711C19.1425 20.9997 18.0401 21.7363 16.8268 22.2388C15.6136 22.7413 14.3132 23 13 23ZM13 5C11.4178 5 9.87104 5.4692 8.55544 6.34825C7.23985 7.2273 6.21447 8.47673 5.60897 9.93854C5.00347 11.4003 4.84504 13.0089 5.15372 14.5607C5.4624 16.1126 6.22433 17.538 7.34315 18.6569C8.46197 19.7757 9.88743 20.5376 11.4393 20.8463C12.9911 21.155 14.5997 20.9965 16.0615 20.391C17.5233 19.7855 18.7727 18.7602 19.6518 17.4446C20.5308 16.129 21 14.5823 21 13C21 10.8783 20.1572 8.84344 18.6569 7.34315C17.1566 5.84286 15.1217 5 13 5Z" fill="white"/>
<path d="M28.0001 29C27.8685 29.0008 27.738 28.9755 27.6162 28.9258C27.4943 28.876 27.3835 28.8027 27.2901 28.71L19.2901 20.71C19.1968 20.6168 19.1229 20.5061 19.0724 20.3843C19.0219 20.2624 18.996 20.1319 18.996 20C18.996 19.8681 19.0219 19.7376 19.0724 19.6158C19.1229 19.4939 19.1968 19.3832 19.2901 19.29C19.3833 19.1968 19.494 19.1228 19.6158 19.0723C19.7376 19.0219 19.8682 18.9959 20.0001 18.9959C20.1319 18.9959 20.2625 19.0219 20.3843 19.0723C20.5061 19.1228 20.6168 19.1968 20.7101 19.29L28.7101 27.29C28.8038 27.383 28.8782 27.4936 28.929 27.6154C28.9797 27.7373 29.0059 27.868 29.0059 28C29.0059 28.132 28.9797 28.2627 28.929 28.3846C28.8782 28.5064 28.8038 28.617 28.7101 28.71C28.6166 28.8027 28.5058 28.876 28.384 28.9258C28.2621 28.9755 28.1317 29.0008 28.0001 29Z" fill="white"/>
</g>
<defs>
<clipPath id="clip0_11_2">
<rect width="32" height="32" fill="white"/>
</clipPath>
</defs>
</svg>
